<?xml version="1.0" encoding="utf-8"?>
<!-- Generator: Adobe Illustrator 16.0.0, SVG Export Plug-In . SVG Version: 6.00 Build 0)  -->
<!DOCTYPE svg PUBLIC "-//W3C//DTD SVG 1.1//EN" "http://www.w3.org/Graphics/SVG/1.1/DTD/svg11.dtd">
<svg version="1.1" id="Layer_1" xmlns="http://www.w3.org/2000/svg" xmlns:xlink="http://www.w3.org/1999/xlink" x="0px" y="0px"
	 width="207px" height="145px" viewBox="0 0 207 145" enable-background="new 0 0 207 145" xml:space="preserve">
<circle fill="none" stroke="#000000" stroke-width="0.12" stroke-linecap="round" stroke-linejoin="round" stroke-miterlimit="10" cx="104.34" cy="73.28" r="13.5"/>
<line fill="none" stroke="#000000" stroke-width="0.12" stroke-linecap="round" stroke-linejoin="round" stroke-miterlimit="10" x1="33.54" y1="117.2" x2="175.14" y2="117.2"/>
<line fill="none" stroke="#000000" stroke-width="0.12" stroke-linecap="round" stroke-linejoin="round" stroke-miterlimit="10" x1="76.02" y1="29.42" x2="132.66" y2="29.42"/>
<line fill="none" stroke="#000000" stroke-width="0.12" stroke-linecap="round" stroke-linejoin="round" stroke-miterlimit="10" x1="33.54" y1="98.78" x2="33.54" y2="117.2"/>
<polyline fill="none" stroke="#000000" stroke-width="0.12" stroke-linecap="round" stroke-linejoin="round" stroke-miterlimit="10" points="
	36.36,70.46 35.4,76.1 34.68,81.74 34.08,87.379 33.72,93.08 33.54,98.78 "/>
<polyline fill="none" stroke="#000000" stroke-width="0.12" stroke-linecap="round" stroke-linejoin="round" stroke-miterlimit="10" points="
	54.06,37.88 51.66,40.34 49.38,42.86 47.28,45.56 45.3,48.38 43.5,51.26 41.82,54.26 40.38,57.38 39.12,60.56 37.98,63.8 
	37.08,67.1 36.36,70.46 "/>
<polyline fill="none" stroke="#000000" stroke-width="0.12" stroke-linecap="round" stroke-linejoin="round" stroke-miterlimit="10" points="
	76.02,29.42 73.32,29.48 70.68,29.78 68.04,30.26 65.46,31.04 63,32 60.54,33.2 58.26,34.58 56.1,36.14 54.06,37.88 "/>
<polyline fill="none" stroke="#000000" stroke-width="0.12" stroke-linecap="round" stroke-linejoin="round" stroke-miterlimit="10" points="
	172.32,70.46 171.601,67.1 170.7,63.8 169.62,60.56 168.3,57.38 166.86,54.26 165.24,51.26 163.44,48.38 161.46,45.56 159.3,42.86 
	157.08,40.34 154.62,37.88 "/>
<polyline fill="none" stroke="#000000" stroke-width="0.12" stroke-linecap="round" stroke-linejoin="round" stroke-miterlimit="10" points="
	154.62,37.88 152.58,36.14 150.42,34.58 148.14,33.2 145.74,32 143.22,31.04 140.64,30.26 138,29.78 135.36,29.48 132.66,29.42 "/>
<line fill="none" stroke="#000000" stroke-width="0.12" stroke-linecap="round" stroke-linejoin="round" stroke-miterlimit="10" x1="175.14" y1="98.78" x2="175.14" y2="117.2"/>
<polyline fill="none" stroke="#000000" stroke-width="0.12" stroke-linecap="round" stroke-linejoin="round" stroke-miterlimit="10" points="
	175.14,98.78 174.96,93.08 174.601,87.379 174.061,81.74 173.28,76.1 172.32,70.46 "/>
</svg>
