<?xml version="1.0" encoding="utf-8"?>
<!-- Generator: Adobe Illustrator 16.0.0, SVG Export Plug-In . SVG Version: 6.00 Build 0)  -->
<!DOCTYPE svg PUBLIC "-//W3C//DTD SVG 1.1//EN" "http://www.w3.org/Graphics/SVG/1.1/DTD/svg11.dtd">
<svg version="1.1" id="Layer_1" xmlns="http://www.w3.org/2000/svg" xmlns:xlink="http://www.w3.org/1999/xlink" x="0px" y="0px"
	 width="233px" height="148px" viewBox="0 0 233 148" enable-background="new 0 0 233 148" xml:space="preserve">
<rect x="134.44" y="77.8" width="2.28" height="2.52"/>
<rect x="131.74" y="71.86" width="2.28" height="2.52"/>
<rect x="137.08" y="71.86" width="2.28" height="2.52"/>
<rect x="137.26" y="83.74" width="3.12" height="2.88"/>
<rect x="132.459" y="83.74" width="3.12" height="2.88"/>
<rect x="158.2" y="110.2" width="2.88" height="2.88"/>
<rect x="115.72" y="110.08" width="2.88" height="2.881"/>
<rect x="106.48" y="35.56" width="2.88" height="2.88"/>
<rect x="163.84" y="110.2" width="2.88" height="2.88"/>
<rect x="158.2" y="113.02" width="2.88" height="2.88"/>
<rect x="115.72" y="112.9" width="2.88" height="2.88"/>
<rect x="106.48" y="38.38" width="2.88" height="2.88"/>
<rect x="163.84" y="113.02" width="2.88" height="2.88"/>
<rect x="127.06" y="38.38" width="2.88" height="2.88"/>
<rect x="101.56" y="38.38" width="2.88" height="2.88"/>
<rect x="132.7" y="35.56" width="2.88" height="2.88"/>
<rect x="127.06" y="35.56" width="2.88" height="2.88"/>
<rect x="101.56" y="35.56" width="2.88" height="2.88"/>
<rect x="132.7" y="38.38" width="2.88" height="2.88"/>
<rect x="70.36" y="110.8" width="2.88" height="2.88"/>
<rect x="94.18" y="74.26" width="2.88" height="2.88"/>
<rect x="96.58" y="38.38" width="2.88" height="2.88"/>
<rect x="96.58" y="35.56" width="2.88" height="2.88"/>
<line fill="none" stroke="#000000" stroke-width="1.74" stroke-linecap="round" stroke-linejoin="round" stroke-miterlimit="10" x1="128.5" y1="37" x2="128.5" y2="39.82"/>
<line fill="none" stroke="#000000" stroke-width="1.74" stroke-linecap="round" stroke-linejoin="round" stroke-miterlimit="10" x1="159.64" y1="111.64" x2="159.64" y2="114.46"/>
<line fill="none" stroke="#000000" stroke-width="1.74" stroke-linecap="round" stroke-linejoin="round" stroke-miterlimit="10" x1="128.5" y1="39.82" x2="128.5" y2="56.44"/>
<line fill="none" stroke="#000000" stroke-width="1.74" stroke-linecap="round" stroke-linejoin="round" stroke-miterlimit="10" x1="138.22" y1="66.16" x2="138.22" y2="73.12"/>
<line fill="none" stroke="#000000" stroke-width="1.74" stroke-linecap="round" stroke-linejoin="round" stroke-miterlimit="10" x1="128.5" y1="56.44" x2="138.22" y2="66.16"/>
<line fill="none" stroke="#000000" stroke-width="1.44" stroke-linecap="round" stroke-linejoin="round" stroke-miterlimit="10" x1="138.22" y1="73.12" x2="135.16" y2="76.24"/>
<line fill="none" stroke="#000000" stroke-width="1.44" stroke-linecap="round" stroke-linejoin="round" stroke-miterlimit="10" x1="135.16" y1="76.24" x2="133.3" y2="76.24"/>
<line fill="none" stroke="#000000" stroke-width="1.44" stroke-linecap="round" stroke-linejoin="round" stroke-miterlimit="10" x1="133.3" y1="76.24" x2="132.7" y2="76.84"/>
<line fill="none" stroke="#000000" stroke-width="1.44" stroke-linecap="round" stroke-linejoin="round" stroke-miterlimit="10" x1="132.7" y1="76.84" x2="132.7" y2="77.62"/>
<line fill="none" stroke="#000000" stroke-width="1.44" stroke-linecap="round" stroke-linejoin="round" stroke-miterlimit="10" x1="132.7" y1="77.62" x2="132.64" y2="77.68"/>
<line fill="none" stroke="#000000" stroke-width="1.44" stroke-linecap="round" stroke-linejoin="round" stroke-miterlimit="10" x1="132.64" y1="77.68" x2="132.64" y2="83.8"/>
<line fill="none" stroke="#000000" stroke-width="1.74" stroke-linecap="round" stroke-linejoin="round" stroke-miterlimit="10" x1="132.64" y1="83.8" x2="134.02" y2="85.18"/>
<line fill="none" stroke="#000000" stroke-width="1.74" stroke-linecap="round" stroke-linejoin="round" stroke-miterlimit="10" x1="134.02" y1="85.18" x2="134.02" y2="94.24"/>
<line fill="none" stroke="#000000" stroke-width="1.74" stroke-linecap="round" stroke-linejoin="round" stroke-miterlimit="10" x1="153.7" y1="102.58" x2="159.64" y2="108.52"/>
<line fill="none" stroke="#000000" stroke-width="1.74" stroke-linecap="round" stroke-linejoin="round" stroke-miterlimit="10" x1="159.64" y1="108.52" x2="159.64" y2="111.64"/>
<line fill="none" stroke="#000000" stroke-width="1.74" stroke-linecap="round" stroke-linejoin="round" stroke-miterlimit="10" x1="134.02" y1="94.24" x2="142.36" y2="102.58"/>
<line fill="none" stroke="#000000" stroke-width="1.74" stroke-linecap="round" stroke-linejoin="round" stroke-miterlimit="10" x1="142.36" y1="102.58" x2="153.7" y2="102.58"/>
<line fill="none" stroke="#000000" stroke-width="1.74" stroke-linecap="round" stroke-linejoin="round" stroke-miterlimit="10" x1="107.92" y1="37" x2="107.92" y2="39.82"/>
<line fill="none" stroke="#000000" stroke-width="1.74" stroke-linecap="round" stroke-linejoin="round" stroke-miterlimit="10" x1="107.92" y1="39.82" x2="107.92" y2="42.52"/>
<line fill="none" stroke="#000000" stroke-width="1.74" stroke-linecap="round" stroke-linejoin="round" stroke-miterlimit="10" x1="107.92" y1="42.52" x2="108.1" y2="42.52"/>
<line fill="none" stroke="#000000" stroke-width="1.74" stroke-linecap="round" stroke-linejoin="round" stroke-miterlimit="10" x1="132.88" y1="67.3" x2="132.88" y2="73.12"/>
<line fill="none" stroke="#000000" stroke-width="1.74" stroke-linecap="round" stroke-linejoin="round" stroke-miterlimit="10" x1="108.1" y1="42.52" x2="132.88" y2="67.3"/>
<line fill="none" stroke="#000000" stroke-width="1.74" stroke-linecap="round" stroke-linejoin="round" stroke-miterlimit="10" x1="134.14" y1="37" x2="134.14" y2="39.82"/>
<line fill="none" stroke="#000000" stroke-width="1.74" stroke-linecap="round" stroke-linejoin="round" stroke-miterlimit="10" x1="165.28" y1="111.64" x2="165.28" y2="114.46"/>
<line fill="none" stroke="#000000" stroke-width="1.74" stroke-linecap="round" stroke-linejoin="round" stroke-miterlimit="10" x1="138.82" y1="82.36" x2="138.82" y2="85.18"/>
<line fill="none" stroke="#000000" stroke-width="1.74" stroke-linecap="round" stroke-linejoin="round" stroke-miterlimit="10" x1="135.58" y1="79.06" x2="137.56" y2="81.04"/>
<line fill="none" stroke="#000000" stroke-width="1.74" stroke-linecap="round" stroke-linejoin="round" stroke-miterlimit="10" x1="137.56" y1="81.04" x2="138.82" y2="82.36"/>
<line fill="none" stroke="#000000" stroke-width="1.74" stroke-linecap="round" stroke-linejoin="round" stroke-miterlimit="10" x1="134.14" y1="39.82" x2="145.18" y2="50.86"/>
<line fill="none" stroke="#000000" stroke-width="1.74" stroke-linecap="round" stroke-linejoin="round" stroke-miterlimit="10" x1="145.18" y1="50.86" x2="145.18" y2="73.42"/>
<line fill="none" stroke="#000000" stroke-width="1.74" stroke-linecap="round" stroke-linejoin="round" stroke-miterlimit="10" x1="145.18" y1="73.42" x2="137.56" y2="81.04"/>
<line fill="none" stroke="#000000" stroke-width="1.74" stroke-linecap="round" stroke-linejoin="round" stroke-miterlimit="10" x1="165.28" y1="111.64" x2="165.28" y2="100.9"/>
<line fill="none" stroke="#000000" stroke-width="1.74" stroke-linecap="round" stroke-linejoin="round" stroke-miterlimit="10" x1="165.28" y1="100.9" x2="149.44" y2="85"/>
<line fill="none" stroke="#000000" stroke-width="1.74" stroke-linecap="round" stroke-linejoin="round" stroke-miterlimit="10" x1="149.44" y1="85" x2="138.94" y2="85"/>
<line fill="none" stroke="#000000" stroke-width="1.74" stroke-linecap="round" stroke-linejoin="round" stroke-miterlimit="10" x1="138.94" y1="85" x2="138.82" y2="85.18"/>
<line fill="none" stroke="#000000" stroke-width="1.74" stroke-linecap="round" stroke-linejoin="round" stroke-miterlimit="10" x1="103" y1="37" x2="103" y2="39.82"/>
<line fill="none" stroke="#000000" stroke-width="1.74" stroke-linecap="round" stroke-linejoin="round" stroke-miterlimit="10" x1="117.16" y1="111.52" x2="117.16" y2="114.34"/>
<line fill="none" stroke="#000000" stroke-width="1.74" stroke-linecap="round" stroke-linejoin="round" stroke-miterlimit="10" x1="103" y1="39.82" x2="103" y2="64.84"/>
<line fill="none" stroke="#000000" stroke-width="1.74" stroke-linecap="round" stroke-linejoin="round" stroke-miterlimit="10" x1="103" y1="64.84" x2="103.24" y2="64.9"/>
<line fill="none" stroke="#000000" stroke-width="1.74" stroke-linecap="round" stroke-linejoin="round" stroke-miterlimit="10" x1="103.24" y1="64.9" x2="100.72" y2="67.48"/>
<line fill="none" stroke="#000000" stroke-width="1.74" stroke-linecap="round" stroke-linejoin="round" stroke-miterlimit="10" x1="100.72" y1="67.48" x2="100.72" y2="91.84"/>
<line fill="none" stroke="#000000" stroke-width="1.74" stroke-linecap="round" stroke-linejoin="round" stroke-miterlimit="10" x1="100.72" y1="91.84" x2="117.16" y2="108.22"/>
<line fill="none" stroke="#000000" stroke-width="1.74" stroke-linecap="round" stroke-linejoin="round" stroke-miterlimit="10" x1="117.16" y1="108.22" x2="117.16" y2="111.52"/>
<line fill="none" stroke="#000000" stroke-width="1.44" stroke-linecap="round" stroke-linejoin="round" stroke-miterlimit="10" x1="98.02" y1="37" x2="98.02" y2="39.82"/>
<line fill="none" stroke="#000000" stroke-width="1.44" stroke-linecap="round" stroke-linejoin="round" stroke-miterlimit="10" x1="97.9" y1="58.12" x2="98.02" y2="58.12"/>
<line fill="none" stroke="#000000" stroke-width="1.44" stroke-linecap="round" stroke-linejoin="round" stroke-miterlimit="10" x1="98.02" y1="39.82" x2="98.02" y2="58.12"/>
<line fill="none" stroke="#000000" stroke-width="1.44" stroke-linecap="round" stroke-linejoin="round" stroke-miterlimit="10" x1="95.62" y1="60.4" x2="95.62" y2="75.7"/>
<line fill="none" stroke="#000000" stroke-width="1.44" stroke-linecap="round" stroke-linejoin="round" stroke-miterlimit="10" x1="95.62" y1="60.4" x2="97.9" y2="58.12"/>
<line fill="none" stroke="#000000" stroke-width="1.44" stroke-linecap="round" stroke-linejoin="round" stroke-miterlimit="10" x1="95.62" y1="75.7" x2="95.62" y2="85.9"/>
<line fill="none" stroke="#000000" stroke-width="1.44" stroke-linecap="round" stroke-linejoin="round" stroke-miterlimit="10" x1="95.62" y1="85.9" x2="71.8" y2="109.66"/>
<line fill="none" stroke="#000000" stroke-width="1.44" stroke-linecap="round" stroke-linejoin="round" stroke-miterlimit="10" x1="71.8" y1="109.66" x2="71.8" y2="112.24"/>
<circle cx="117.22" cy="75.94" r="12.756"/>
<line fill="none" stroke="#000000" stroke-width="0.12" stroke-linecap="round" stroke-linejoin="round" stroke-miterlimit="10" x1="187.959" y1="119.86" x2="46.36" y2="119.86"/>
<line fill="none" stroke="#000000" stroke-width="0.12" stroke-linecap="round" stroke-linejoin="round" stroke-miterlimit="10" x1="145.48" y1="32.08" x2="88.84" y2="32.08"/>
<line fill="none" stroke="#000000" stroke-width="0.12" stroke-linecap="round" stroke-linejoin="round" stroke-miterlimit="10" x1="187.959" y1="101.44" x2="187.959" y2="119.86"/>
<polyline fill="none" stroke="#000000" stroke-width="0.12" stroke-linecap="round" stroke-linejoin="round" stroke-miterlimit="10" points="
	185.14,73.12 186.1,78.76 186.82,84.4 187.42,90.04 187.78,95.74 187.959,101.44 "/>
<polyline fill="none" stroke="#000000" stroke-width="0.12" stroke-linecap="round" stroke-linejoin="round" stroke-miterlimit="10" points="
	167.44,40.54 169.84,43 172.12,45.52 174.22,48.22 176.2,51.04 178,53.92 179.68,56.92 181.12,60.04 182.38,63.22 183.52,66.46 
	184.42,69.76 185.14,73.12 "/>
<polyline fill="none" stroke="#000000" stroke-width="0.12" stroke-linecap="round" stroke-linejoin="round" stroke-miterlimit="10" points="
	145.48,32.08 148.18,32.14 150.82,32.44 153.459,32.92 156.04,33.7 158.5,34.66 160.959,35.86 163.24,37.24 165.4,38.8 
	167.44,40.54 "/>
<polyline fill="none" stroke="#000000" stroke-width="0.12" stroke-linecap="round" stroke-linejoin="round" stroke-miterlimit="10" points="
	49.18,73.12 49.9,69.76 50.8,66.46 51.88,63.22 53.2,60.04 54.64,56.92 56.26,53.92 58.06,51.04 60.04,48.22 62.2,45.52 64.42,43 
	66.88,40.54 "/>
<polyline fill="none" stroke="#000000" stroke-width="0.12" stroke-linecap="round" stroke-linejoin="round" stroke-miterlimit="10" points="
	66.88,40.54 68.92,38.8 71.08,37.24 73.36,35.86 75.76,34.66 78.28,33.7 80.86,32.92 83.5,32.44 86.14,32.14 88.84,32.08 "/>
<line fill="none" stroke="#000000" stroke-width="0.12" stroke-linecap="round" stroke-linejoin="round" stroke-miterlimit="10" x1="46.36" y1="101.44" x2="46.36" y2="119.86"/>
<polyline fill="none" stroke="#000000" stroke-width="0.12" stroke-linecap="round" stroke-linejoin="round" stroke-miterlimit="10" points="
	46.36,101.44 46.54,95.74 46.9,90.04 47.44,84.4 48.22,78.76 49.18,73.12 "/>
<rect x="70.36" y="113.62" width="2.88" height="2.88"/>
</svg>
