<?xml version="1.0" encoding="utf-8"?>
<!-- Generator: Adobe Illustrator 16.0.0, SVG Export Plug-In . SVG Version: 6.00 Build 0)  -->
<!DOCTYPE svg PUBLIC "-//W3C//DTD SVG 1.1//EN" "http://www.w3.org/Graphics/SVG/1.1/DTD/svg11.dtd">
<svg version="1.1" id="Layer_1" xmlns="http://www.w3.org/2000/svg" xmlns:xlink="http://www.w3.org/1999/xlink" x="0px" y="0px"
	 width="206px" height="123px" viewBox="0 0 206 123" enable-background="new 0 0 206 123" xml:space="preserve">
<rect x="121.42" y="64.42" width="2.28" height="2.52"/>
<rect x="118.72" y="58.48" width="2.28" height="2.52"/>
<rect x="124.12" y="58.48" width="2.28" height="2.52"/>
<rect x="129.34" y="62.86" width="2.88" height="3.12"/>
<rect x="129.34" y="58.06" width="2.88" height="3.12"/>
<rect x="145.18" y="45.58" width="2.88" height="2.88"/>
<rect x="102.7" y="44.98" width="2.88" height="2.88"/>
<rect x="150.82" y="42.76" width="2.88" height="2.88"/>
<rect x="145.18" y="42.76" width="2.88" height="2.88"/>
<rect x="102.7" y="42.46" width="2.88" height="2.88"/>
<rect x="150.82" y="45.58" width="2.88" height="2.88"/>
<rect x="148" y="76.72" width="2.88" height="2.88"/>
<rect x="148" y="79.54" width="2.88" height="2.88"/>
<rect x="57.4" y="45.58" width="2.88" height="2.88"/>
<rect x="57.4" y="42.76" width="2.88" height="2.88"/>
<rect x="86.38" y="60.7" width="2.88" height="2.88"/>
<line fill="none" stroke="#000000" stroke-width="1.44" stroke-linecap="round" stroke-linejoin="round" stroke-miterlimit="10" x1="146.62" y1="44.2" x2="146.62" y2="47.02"/>
<line fill="none" stroke="#000000" stroke-width="1.74" stroke-linecap="round" stroke-linejoin="round" stroke-miterlimit="10" x1="146.62" y1="47.02" x2="134.02" y2="59.62"/>
<line fill="none" stroke="#000000" stroke-width="1.74" stroke-linecap="round" stroke-linejoin="round" stroke-miterlimit="10" x1="134.02" y1="59.62" x2="130.78" y2="59.62"/>
<line fill="none" stroke="#000000" stroke-width="1.74" stroke-linecap="round" stroke-linejoin="round" stroke-miterlimit="10" x1="130.78" y1="59.62" x2="125.38" y2="59.62"/>
<line fill="none" stroke="#000000" stroke-width="1.74" stroke-linecap="round" stroke-linejoin="round" stroke-miterlimit="10" x1="125.38" y1="59.62" x2="125.26" y2="59.74"/>
<line fill="none" stroke="#000000" stroke-width="1.44" stroke-linecap="round" stroke-linejoin="round" stroke-miterlimit="10" x1="104.14" y1="43.9" x2="104.14" y2="46.42"/>
<line fill="none" stroke="#000000" stroke-width="1.74" stroke-linecap="round" stroke-linejoin="round" stroke-miterlimit="10" x1="104.14" y1="46.42" x2="107.5" y2="46.42"/>
<line fill="none" stroke="#000000" stroke-width="1.74" stroke-linecap="round" stroke-linejoin="round" stroke-miterlimit="10" x1="107.5" y1="46.42" x2="108.64" y2="47.56"/>
<line fill="none" stroke="#000000" stroke-width="1.74" stroke-linecap="round" stroke-linejoin="round" stroke-miterlimit="10" x1="108.64" y1="47.56" x2="114.04" y2="47.56"/>
<line fill="none" stroke="#000000" stroke-width="1.74" stroke-linecap="round" stroke-linejoin="round" stroke-miterlimit="10" x1="114.04" y1="47.56" x2="119.86" y2="53.38"/>
<line fill="none" stroke="#000000" stroke-width="1.74" stroke-linecap="round" stroke-linejoin="round" stroke-miterlimit="10" x1="119.86" y1="53.38" x2="119.86" y2="59.74"/>
<line fill="none" stroke="#000000" stroke-width="1.44" stroke-linecap="round" stroke-linejoin="round" stroke-miterlimit="10" x1="152.26" y1="44.2" x2="152.26" y2="47.02"/>
<line fill="none" stroke="#000000" stroke-width="1.74" stroke-linecap="round" stroke-linejoin="round" stroke-miterlimit="10" x1="152.26" y1="47.02" x2="152.26" y2="55.78"/>
<line fill="none" stroke="#000000" stroke-width="1.74" stroke-linecap="round" stroke-linejoin="round" stroke-miterlimit="10" x1="152.26" y1="55.78" x2="143.5" y2="64.54"/>
<line fill="none" stroke="#000000" stroke-width="1.74" stroke-linecap="round" stroke-linejoin="round" stroke-miterlimit="10" x1="143.5" y1="64.54" x2="130.9" y2="64.54"/>
<line fill="none" stroke="#000000" stroke-width="1.74" stroke-linecap="round" stroke-linejoin="round" stroke-miterlimit="10" x1="130.9" y1="64.54" x2="130.78" y2="64.42"/>
<line fill="none" stroke="#000000" stroke-width="1.74" stroke-linecap="round" stroke-linejoin="round" stroke-miterlimit="10" x1="122.56" y1="65.68" x2="129.46" y2="65.68"/>
<line fill="none" stroke="#000000" stroke-width="1.74" stroke-linecap="round" stroke-linejoin="round" stroke-miterlimit="10" x1="129.46" y1="65.68" x2="130.78" y2="64.42"/>
<line fill="none" stroke="#000000" stroke-width="1.74" stroke-linecap="round" stroke-linejoin="round" stroke-miterlimit="10" x1="149.44" y1="80.98" x2="149.44" y2="78.16"/>
<line fill="none" stroke="#000000" stroke-width="1.74" stroke-linecap="round" stroke-linejoin="round" stroke-miterlimit="10" x1="58.84" y1="47.02" x2="58.84" y2="44.2"/>
<line fill="none" stroke="#000000" stroke-width="1.74" stroke-linecap="round" stroke-linejoin="round" stroke-miterlimit="10" x1="149.44" y1="78.16" x2="145.48" y2="74.2"/>
<line fill="none" stroke="#000000" stroke-width="1.74" stroke-linecap="round" stroke-linejoin="round" stroke-miterlimit="10" x1="118.84" y1="74.2" x2="115.06" y2="77.98"/>
<line fill="none" stroke="#000000" stroke-width="1.44" stroke-linecap="round" stroke-linejoin="round" stroke-miterlimit="10" x1="115.06" y1="77.98" x2="86.44" y2="77.98"/>
<line fill="none" stroke="#000000" stroke-width="1.74" stroke-linecap="round" stroke-linejoin="round" stroke-miterlimit="10" x1="86.44" y1="77.98" x2="75.52" y2="67.12"/>
<line fill="none" stroke="#000000" stroke-width="1.74" stroke-linecap="round" stroke-linejoin="round" stroke-miterlimit="10" x1="75.52" y1="67.12" x2="58.84" y2="50.38"/>
<line fill="none" stroke="#000000" stroke-width="1.74" stroke-linecap="round" stroke-linejoin="round" stroke-miterlimit="10" x1="58.84" y1="50.38" x2="58.84" y2="47.02"/>
<line fill="none" stroke="#000000" stroke-width="1.74" stroke-linecap="round" stroke-linejoin="round" stroke-miterlimit="10" x1="145.48" y1="74.2" x2="118.84" y2="74.2"/>
<line fill="none" stroke="#000000" stroke-width="1.44" stroke-linecap="round" stroke-linejoin="round" stroke-miterlimit="10" x1="87.82" y1="62.14" x2="80.5" y2="62.14"/>
<line fill="none" stroke="#000000" stroke-width="1.44" stroke-linecap="round" stroke-linejoin="round" stroke-miterlimit="10" x1="80.5" y1="62.14" x2="75.52" y2="67.12"/>
<ellipse cx="103.456" cy="63.301" rx="12.756" ry="12.699"/>
<line fill="none" stroke="#000000" stroke-width="0.12" stroke-linecap="round" stroke-linejoin="round" stroke-miterlimit="10" x1="174.94" y1="38.5" x2="174.94" y2="86.62"/>
<line fill="none" stroke="#000000" stroke-width="0.12" stroke-linecap="round" stroke-linejoin="round" stroke-miterlimit="10" x1="33.34" y1="38.5" x2="33.34" y2="86.62"/>
<line fill="none" stroke="#000000" stroke-width="0.12" stroke-linecap="round" stroke-linejoin="round" stroke-miterlimit="10" x1="51.854" y1="38.5" x2="156.505" y2="38.5"/>
<line fill="none" stroke="#000000" stroke-width="0.12" stroke-linecap="round" stroke-linejoin="round" stroke-miterlimit="10" x1="156.52" y1="38.5" x2="174.94" y2="38.5"/>
<line fill="none" stroke="#000000" stroke-width="0.12" stroke-linecap="round" stroke-linejoin="round" stroke-miterlimit="10" x1="33.34" y1="38.5" x2="51.76" y2="38.5"/>
<line fill="none" stroke="#000000" stroke-width="0.12" stroke-linecap="round" stroke-linejoin="round" stroke-miterlimit="10" x1="156.505" y1="86.62" x2="51.854" y2="86.62"/>
<line fill="none" stroke="#000000" stroke-width="0.12" stroke-linecap="round" stroke-linejoin="round" stroke-miterlimit="10" x1="51.76" y1="86.62" x2="33.34" y2="86.62"/>
<line fill="none" stroke="#000000" stroke-width="0.12" stroke-linecap="round" stroke-linejoin="round" stroke-miterlimit="10" x1="174.94" y1="86.62" x2="156.52" y2="86.62"/>
</svg>
