<?xml version="1.0" encoding="utf-8"?>
<!-- Generator: Adobe Illustrator 16.0.0, SVG Export Plug-In . SVG Version: 6.00 Build 0)  -->
<!DOCTYPE svg PUBLIC "-//W3C//DTD SVG 1.1//EN" "http://www.w3.org/Graphics/SVG/1.1/DTD/svg11.dtd">
<svg version="1.1" id="Layer_1" xmlns="http://www.w3.org/2000/svg" xmlns:xlink="http://www.w3.org/1999/xlink" x="0px" y="0px"
	 width="125px" height="107px" viewBox="0 0 125 107" enable-background="new 0 0 125 107" xml:space="preserve">
<rect x="42.94" y="49.68" width="2.28" height="2.52"/>
<rect x="45.64" y="55.62" width="2.28" height="2.52"/>
<rect x="40.24" y="55.62" width="2.28" height="2.52"/>
<rect x="37.3" y="62.46" width="3.12" height="2.88"/>
<rect x="42.1" y="62.46" width="3.12" height="2.88"/>
<rect x="46.9" y="71.1" width="2.88" height="2.88"/>
<rect x="75.221" y="36.9" width="2.88" height="2.88"/>
<rect x="70.24" y="36.9" width="2.88" height="2.88"/>
<rect x="51.88" y="71.1" width="2.881" height="2.88"/>
<rect x="41.92" y="71.1" width="2.88" height="2.88"/>
<rect x="49.721" y="36.9" width="2.88" height="2.88"/>
<rect x="75.221" y="34.08" width="2.88" height="2.88"/>
<rect x="70.24" y="34.08" width="2.88" height="2.88"/>
<rect x="51.88" y="68.28" width="2.881" height="2.88"/>
<rect x="44.08" y="36.9" width="2.88" height="2.88"/>
<rect x="49.721" y="34.08" width="2.88" height="2.88"/>
<rect x="78.04" y="71.1" width="2.88" height="2.88"/>
<rect x="78.04" y="71.1" fill="none" stroke="#000000" stroke-width="0" stroke-linecap="round" stroke-linejoin="round" stroke-miterlimit="10" width="2.88" height="2.88"/>
<rect x="72.4" y="71.1" width="2.88" height="2.88"/>
<rect x="72.4" y="71.1" fill="none" stroke="#000000" stroke-width="0" stroke-linecap="round" stroke-linejoin="round" stroke-miterlimit="10" width="2.88" height="2.88"/>
<rect x="44.08" y="34.08" width="2.88" height="2.88"/>
<rect x="46.9" y="68.28" width="2.88" height="2.88"/>
<rect x="78.04" y="68.28" width="2.88" height="2.88"/>
<rect x="78.04" y="68.28" fill="none" stroke="#000000" stroke-width="0" stroke-linecap="round" stroke-linejoin="round" stroke-miterlimit="10" width="2.88" height="2.88"/>
<rect x="72.4" y="68.28" width="2.88" height="2.88"/>
<rect x="72.4" y="68.28" fill="none" stroke="#000000" stroke-width="0" stroke-linecap="round" stroke-linejoin="round" stroke-miterlimit="10" width="2.88" height="2.88"/>
<rect x="41.92" y="68.28" width="2.88" height="2.88"/>
<rect x="85.42" y="51.72" width="2.88" height="2.88"/>
<rect x="80.141" y="36.9" width="2.88" height="2.88"/>
<rect x="80.141" y="34.08" width="2.88" height="2.88"/>
<line fill="none" stroke="#000000" stroke-width="1.74" stroke-linecap="round" stroke-linejoin="round" stroke-miterlimit="10" x1="51.16" y1="35.52" x2="51.16" y2="38.34"/>
<line fill="none" stroke="#000000" stroke-width="1.74" stroke-linecap="round" stroke-linejoin="round" stroke-miterlimit="10" x1="48.34" y1="69.72" x2="48.34" y2="72.54"/>
<line fill="none" stroke="#000000" stroke-width="1.74" stroke-linecap="round" stroke-linejoin="round" stroke-miterlimit="10" x1="48.34" y1="69.72" x2="48.04" y2="69.42"/>
<line fill="none" stroke="#000000" stroke-width="1.74" stroke-linecap="round" stroke-linejoin="round" stroke-miterlimit="10" x1="48.04" y1="69.42" x2="48.04" y2="67.02"/>
<line fill="none" stroke="#000000" stroke-width="1.74" stroke-linecap="round" stroke-linejoin="round" stroke-miterlimit="10" x1="48.04" y1="67.02" x2="43.96" y2="62.939"/>
<line fill="none" stroke="#000000" stroke-width="1.74" stroke-linecap="round" stroke-linejoin="round" stroke-miterlimit="10" x1="43.96" y1="62.939" x2="41.38" y2="60.36"/>
<line fill="none" stroke="#000000" stroke-width="1.74" stroke-linecap="round" stroke-linejoin="round" stroke-miterlimit="10" x1="41.38" y1="60.36" x2="41.38" y2="56.88"/>
<line fill="none" stroke="#000000" stroke-width="1.74" stroke-linecap="round" stroke-linejoin="round" stroke-miterlimit="10" x1="43.66" y1="63.9" x2="43.96" y2="63.66"/>
<line fill="none" stroke="#000000" stroke-width="1.74" stroke-linecap="round" stroke-linejoin="round" stroke-miterlimit="10" x1="43.96" y1="63.66" x2="43.96" y2="62.939"/>
<line fill="none" stroke="#000000" stroke-width="1.44" stroke-linecap="round" stroke-linejoin="round" stroke-miterlimit="10" x1="41.38" y1="56.88" x2="41.38" y2="56.7"/>
<line fill="none" stroke="#000000" stroke-width="1.44" stroke-linecap="round" stroke-linejoin="round" stroke-miterlimit="10" x1="41.38" y1="56.7" x2="44.08" y2="54"/>
<line fill="none" stroke="#000000" stroke-width="1.44" stroke-linecap="round" stroke-linejoin="round" stroke-miterlimit="10" x1="44.08" y1="54" x2="46.06" y2="54"/>
<line fill="none" stroke="#000000" stroke-width="1.44" stroke-linecap="round" stroke-linejoin="round" stroke-miterlimit="10" x1="46.06" y1="54" x2="46.9" y2="53.16"/>
<line fill="none" stroke="#000000" stroke-width="1.44" stroke-linecap="round" stroke-linejoin="round" stroke-miterlimit="10" x1="46.9" y1="48.06" x2="47.74" y2="47.22"/>
<line fill="none" stroke="#000000" stroke-width="1.74" stroke-linecap="round" stroke-linejoin="round" stroke-miterlimit="10" x1="47.74" y1="47.22" x2="47.74" y2="44.4"/>
<line fill="none" stroke="#000000" stroke-width="1.74" stroke-linecap="round" stroke-linejoin="round" stroke-miterlimit="10" x1="47.74" y1="44.4" x2="51.16" y2="41.04"/>
<line fill="none" stroke="#000000" stroke-width="1.74" stroke-linecap="round" stroke-linejoin="round" stroke-miterlimit="10" x1="51.16" y1="41.04" x2="51.16" y2="38.34"/>
<line fill="none" stroke="#000000" stroke-width="1.44" stroke-linecap="round" stroke-linejoin="round" stroke-miterlimit="10" x1="46.9" y1="53.16" x2="46.9" y2="48.06"/>
<line fill="none" stroke="#000000" stroke-width="1.74" stroke-linecap="round" stroke-linejoin="round" stroke-miterlimit="10" x1="71.681" y1="35.52" x2="71.681" y2="38.34"/>
<line fill="none" stroke="#000000" stroke-width="1.74" stroke-linecap="round" stroke-linejoin="round" stroke-miterlimit="10" x1="73.84" y1="72.54" x2="73.84" y2="69.72"/>
<line fill="none" stroke="#000000" stroke-width="1.74" stroke-linecap="round" stroke-linejoin="round" stroke-miterlimit="10" x1="72.101" y1="39.9" x2="71.681" y2="39.24"/>
<line fill="none" stroke="#000000" stroke-width="1.74" stroke-linecap="round" stroke-linejoin="round" stroke-miterlimit="10" x1="71.681" y1="38.34" x2="71.681" y2="39.24"/>
<line fill="none" stroke="#000000" stroke-width="1.74" stroke-linecap="round" stroke-linejoin="round" stroke-miterlimit="10" x1="72.101" y1="39.9" x2="78.641" y2="46.38"/>
<line fill="none" stroke="#000000" stroke-width="1.74" stroke-linecap="round" stroke-linejoin="round" stroke-miterlimit="10" x1="78.641" y1="46.38" x2="78.641" y2="62.52"/>
<line fill="none" stroke="#000000" stroke-width="1.74" stroke-linecap="round" stroke-linejoin="round" stroke-miterlimit="10" x1="78.641" y1="62.52" x2="73.84" y2="67.32"/>
<line fill="none" stroke="#000000" stroke-width="1.74" stroke-linecap="round" stroke-linejoin="round" stroke-miterlimit="10" x1="73.84" y1="67.32" x2="73.84" y2="69.72"/>
<line fill="none" stroke="#000000" stroke-width="1.74" stroke-linecap="round" stroke-linejoin="round" stroke-miterlimit="10" x1="76.66" y1="35.52" x2="76.66" y2="38.34"/>
<line fill="none" stroke="#000000" stroke-width="1.74" stroke-linecap="round" stroke-linejoin="round" stroke-miterlimit="10" x1="79.48" y1="72.54" x2="79.48" y2="69.72"/>
<line fill="none" stroke="#000000" stroke-width="1.74" stroke-linecap="round" stroke-linejoin="round" stroke-miterlimit="10" x1="82.3" y1="63.78" x2="79.48" y2="66.6"/>
<line fill="none" stroke="#000000" stroke-width="1.74" stroke-linecap="round" stroke-linejoin="round" stroke-miterlimit="10" x1="79.48" y1="69.72" x2="79.48" y2="66.6"/>
<line fill="none" stroke="#000000" stroke-width="1.74" stroke-linecap="round" stroke-linejoin="round" stroke-miterlimit="10" x1="82.3" y1="63.78" x2="82.3" y2="45.42"/>
<line fill="none" stroke="#000000" stroke-width="1.74" stroke-linecap="round" stroke-linejoin="round" stroke-miterlimit="10" x1="82.3" y1="45.42" x2="76.66" y2="39.72"/>
<line fill="none" stroke="#000000" stroke-width="1.74" stroke-linecap="round" stroke-linejoin="round" stroke-miterlimit="10" x1="76.66" y1="39.72" x2="76.66" y2="38.34"/>
<line fill="none" stroke="#000000" stroke-width="1.74" stroke-linecap="round" stroke-linejoin="round" stroke-miterlimit="10" x1="45.521" y1="35.52" x2="45.521" y2="38.34"/>
<line fill="none" stroke="#000000" stroke-width="1.74" stroke-linecap="round" stroke-linejoin="round" stroke-miterlimit="10" x1="43.36" y1="72.54" x2="43.36" y2="69.72"/>
<line fill="none" stroke="#000000" stroke-width="1.74" stroke-linecap="round" stroke-linejoin="round" stroke-miterlimit="10" x1="43.36" y1="69.72" x2="37.6" y2="63.9"/>
<line fill="none" stroke="#000000" stroke-width="1.74" stroke-linecap="round" stroke-linejoin="round" stroke-miterlimit="10" x1="37.3" y1="53.76" x2="40.12" y2="50.94"/>
<line fill="none" stroke="#000000" stroke-width="1.74" stroke-linecap="round" stroke-linejoin="round" stroke-miterlimit="10" x1="40.12" y1="50.94" x2="44.08" y2="50.94"/>
<line fill="none" stroke="#000000" stroke-width="1.74" stroke-linecap="round" stroke-linejoin="round" stroke-miterlimit="10" x1="37.3" y1="63.66" x2="37.3" y2="53.76"/>
<line fill="none" stroke="#000000" stroke-width="1.74" stroke-linecap="round" stroke-linejoin="round" stroke-miterlimit="10" x1="38.86" y1="63.9" x2="37.6" y2="63.9"/>
<line fill="none" stroke="#000000" stroke-width="1.74" stroke-linecap="round" stroke-linejoin="round" stroke-miterlimit="10" x1="37.6" y1="63.9" x2="37.3" y2="63.66"/>
<line fill="none" stroke="#000000" stroke-width="1.74" stroke-linecap="round" stroke-linejoin="round" stroke-miterlimit="10" x1="44.08" y1="50.94" x2="44.08" y2="39.72"/>
<line fill="none" stroke="#000000" stroke-width="1.74" stroke-linecap="round" stroke-linejoin="round" stroke-miterlimit="10" x1="44.08" y1="39.72" x2="45.521" y2="38.34"/>
<line fill="none" stroke="#000000" stroke-width="1.74" stroke-linecap="round" stroke-linejoin="round" stroke-miterlimit="10" x1="53.32" y1="72.54" x2="53.32" y2="69.72"/>
<line fill="none" stroke="#000000" stroke-width="1.74" stroke-linecap="round" stroke-linejoin="round" stroke-miterlimit="10" x1="53.32" y1="69.72" x2="53.32" y2="67.2"/>
<line fill="none" stroke="#000000" stroke-width="1.74" stroke-linecap="round" stroke-linejoin="round" stroke-miterlimit="10" x1="46.78" y1="60.66" x2="46.78" y2="56.88"/>
<line fill="none" stroke="#000000" stroke-width="1.74" stroke-linecap="round" stroke-linejoin="round" stroke-miterlimit="10" x1="53.32" y1="67.2" x2="46.78" y2="60.66"/>
<line fill="none" stroke="#000000" stroke-width="1.44" stroke-linecap="round" stroke-linejoin="round" stroke-miterlimit="10" x1="86.261" y1="53.76" x2="86.86" y2="53.16"/>
<line fill="none" stroke="#000000" stroke-width="1.44" stroke-linecap="round" stroke-linejoin="round" stroke-miterlimit="10" x1="81.58" y1="35.52" x2="81.58" y2="38.34"/>
<line fill="none" stroke="#000000" stroke-width="1.44" stroke-linecap="round" stroke-linejoin="round" stroke-miterlimit="10" x1="81.58" y1="38.34" x2="81.58" y2="39.72"/>
<line fill="none" stroke="#000000" stroke-width="1.44" stroke-linecap="round" stroke-linejoin="round" stroke-miterlimit="10" x1="81.58" y1="39.72" x2="86.86" y2="45"/>
<line fill="none" stroke="#000000" stroke-width="1.44" stroke-linecap="round" stroke-linejoin="round" stroke-miterlimit="10" x1="86.86" y1="45" x2="86.86" y2="53.16"/>
<ellipse cx="62.5" cy="54" rx="12.756" ry="12.699"/>
<line fill="none" stroke="#000000" stroke-width="0.12" stroke-linecap="round" stroke-linejoin="round" stroke-miterlimit="10" x1="90.82" y1="78.06" x2="90.82" y2="30"/>
<line fill="none" stroke="#000000" stroke-width="0.12" stroke-linecap="round" stroke-linejoin="round" stroke-miterlimit="10" x1="34.18" y1="30" x2="34.18" y2="78.06"/>
<line fill="none" stroke="#000000" stroke-width="0.12" stroke-linecap="round" stroke-linejoin="round" stroke-miterlimit="10" x1="90.82" y1="78.06" x2="83.74" y2="78.06"/>
<line fill="none" stroke="#000000" stroke-width="0.12" stroke-linecap="round" stroke-linejoin="round" stroke-miterlimit="10" x1="83.695" y1="78.06" x2="41.243" y2="78.06"/>
<line fill="none" stroke="#000000" stroke-width="0.12" stroke-linecap="round" stroke-linejoin="round" stroke-miterlimit="10" x1="41.26" y1="78.06" x2="34.18" y2="78.06"/>
<line fill="none" stroke="#000000" stroke-width="0.12" stroke-linecap="round" stroke-linejoin="round" stroke-miterlimit="10" x1="34.18" y1="30" x2="41.26" y2="30"/>
<line fill="none" stroke="#000000" stroke-width="0.12" stroke-linecap="round" stroke-linejoin="round" stroke-miterlimit="10" x1="41.243" y1="30" x2="83.695" y2="30"/>
<line fill="none" stroke="#000000" stroke-width="0.12" stroke-linecap="round" stroke-linejoin="round" stroke-miterlimit="10" x1="83.74" y1="30" x2="90.82" y2="30"/>
</svg>
