<?xml version="1.0" encoding="utf-8"?>
<!-- Generator: Adobe Illustrator 16.0.0, SVG Export Plug-In . SVG Version: 6.00 Build 0)  -->
<!DOCTYPE svg PUBLIC "-//W3C//DTD SVG 1.1//EN" "http://www.w3.org/Graphics/SVG/1.1/DTD/svg11.dtd">
<svg version="1.1" id="Layer_1" xmlns="http://www.w3.org/2000/svg" xmlns:xlink="http://www.w3.org/1999/xlink" x="0px" y="0px"
	 width="115px" height="106px" viewBox="0 0 115 106" enable-background="new 0 0 115 106" xml:space="preserve">
<rect x="38.561" y="50.1" width="2.28" height="2.52"/>
<rect x="41.26" y="56.04" width="2.28" height="2.52"/>
<rect x="35.86" y="56.04" width="2.28" height="2.52"/>
<rect x="32.92" y="62.88" width="3.12" height="2.88"/>
<rect x="37.72" y="62.88" width="3.12" height="2.88"/>
<rect x="42.521" y="71.52" width="2.88" height="2.88"/>
<rect x="73.66" y="37.32" width="2.88" height="2.88"/>
<rect x="68.021" y="37.32" width="2.88" height="2.88"/>
<rect x="47.5" y="71.52" width="2.881" height="2.88"/>
<rect x="37.541" y="71.52" width="2.88" height="2.88"/>
<rect x="45.341" y="37.32" width="2.88" height="2.88"/>
<rect x="73.66" y="34.5" width="2.88" height="2.88"/>
<rect x="68.021" y="34.5" width="2.88" height="2.88"/>
<rect x="47.5" y="68.7" width="2.881" height="2.88"/>
<rect x="39.7" y="37.32" width="2.88" height="2.88"/>
<rect x="45.341" y="34.5" width="2.88" height="2.88"/>
<rect x="73.66" y="71.52" width="2.88" height="2.88"/>
<rect x="68.021" y="71.52" width="2.88" height="2.88"/>
<rect x="39.7" y="34.5" width="2.88" height="2.88"/>
<rect x="42.521" y="68.7" width="2.88" height="2.88"/>
<rect x="73.66" y="68.7" width="2.88" height="2.88"/>
<rect x="68.021" y="68.7" width="2.88" height="2.88"/>
<rect x="37.541" y="68.7" width="2.88" height="2.88"/>
<line fill="none" stroke="#000000" stroke-width="1.74" stroke-linecap="round" stroke-linejoin="round" stroke-miterlimit="10" x1="46.78" y1="35.94" x2="46.78" y2="38.76"/>
<line fill="none" stroke="#000000" stroke-width="1.74" stroke-linecap="round" stroke-linejoin="round" stroke-miterlimit="10" x1="43.96" y1="70.14" x2="43.96" y2="72.96"/>
<line fill="none" stroke="#000000" stroke-width="1.74" stroke-linecap="round" stroke-linejoin="round" stroke-miterlimit="10" x1="43.96" y1="70.14" x2="43.66" y2="69.84"/>
<line fill="none" stroke="#000000" stroke-width="1.74" stroke-linecap="round" stroke-linejoin="round" stroke-miterlimit="10" x1="43.66" y1="69.84" x2="43.66" y2="67.439"/>
<line fill="none" stroke="#000000" stroke-width="1.74" stroke-linecap="round" stroke-linejoin="round" stroke-miterlimit="10" x1="43.66" y1="67.439" x2="39.581" y2="63.359"/>
<line fill="none" stroke="#000000" stroke-width="1.74" stroke-linecap="round" stroke-linejoin="round" stroke-miterlimit="10" x1="39.581" y1="63.359" x2="37" y2="60.78"/>
<line fill="none" stroke="#000000" stroke-width="1.74" stroke-linecap="round" stroke-linejoin="round" stroke-miterlimit="10" x1="37" y1="60.78" x2="37" y2="57.3"/>
<line fill="none" stroke="#000000" stroke-width="1.74" stroke-linecap="round" stroke-linejoin="round" stroke-miterlimit="10" x1="39.28" y1="64.32" x2="39.581" y2="64.08"/>
<line fill="none" stroke="#000000" stroke-width="1.74" stroke-linecap="round" stroke-linejoin="round" stroke-miterlimit="10" x1="39.581" y1="64.08" x2="39.581" y2="63.359"/>
<line fill="none" stroke="#000000" stroke-width="1.44" stroke-linecap="round" stroke-linejoin="round" stroke-miterlimit="10" x1="37" y1="57.3" x2="37" y2="57.12"/>
<line fill="none" stroke="#000000" stroke-width="1.44" stroke-linecap="round" stroke-linejoin="round" stroke-miterlimit="10" x1="37" y1="57.12" x2="39.7" y2="54.42"/>
<line fill="none" stroke="#000000" stroke-width="1.44" stroke-linecap="round" stroke-linejoin="round" stroke-miterlimit="10" x1="39.7" y1="54.42" x2="41.68" y2="54.42"/>
<line fill="none" stroke="#000000" stroke-width="1.44" stroke-linecap="round" stroke-linejoin="round" stroke-miterlimit="10" x1="41.68" y1="54.42" x2="42.521" y2="53.58"/>
<line fill="none" stroke="#000000" stroke-width="1.44" stroke-linecap="round" stroke-linejoin="round" stroke-miterlimit="10" x1="42.521" y1="48.48" x2="43.36" y2="47.64"/>
<line fill="none" stroke="#000000" stroke-width="1.74" stroke-linecap="round" stroke-linejoin="round" stroke-miterlimit="10" x1="43.36" y1="47.64" x2="43.36" y2="44.82"/>
<line fill="none" stroke="#000000" stroke-width="1.74" stroke-linecap="round" stroke-linejoin="round" stroke-miterlimit="10" x1="43.36" y1="44.82" x2="46.78" y2="41.46"/>
<line fill="none" stroke="#000000" stroke-width="1.74" stroke-linecap="round" stroke-linejoin="round" stroke-miterlimit="10" x1="46.78" y1="41.46" x2="46.78" y2="38.76"/>
<line fill="none" stroke="#000000" stroke-width="1.44" stroke-linecap="round" stroke-linejoin="round" stroke-miterlimit="10" x1="42.521" y1="53.58" x2="42.521" y2="48.48"/>
<line fill="none" stroke="#000000" stroke-width="1.74" stroke-linecap="round" stroke-linejoin="round" stroke-miterlimit="10" x1="69.46" y1="35.94" x2="69.46" y2="38.76"/>
<line fill="none" stroke="#000000" stroke-width="1.74" stroke-linecap="round" stroke-linejoin="round" stroke-miterlimit="10" x1="69.46" y1="72.96" x2="69.46" y2="70.14"/>
<line fill="none" stroke="#000000" stroke-width="1.74" stroke-linecap="round" stroke-linejoin="round" stroke-miterlimit="10" x1="69.46" y1="38.76" x2="69.46" y2="42"/>
<line fill="none" stroke="#000000" stroke-width="1.74" stroke-linecap="round" stroke-linejoin="round" stroke-miterlimit="10" x1="69.46" y1="42" x2="75.4" y2="47.94"/>
<line fill="none" stroke="#000000" stroke-width="1.74" stroke-linecap="round" stroke-linejoin="round" stroke-miterlimit="10" x1="75.4" y1="47.94" x2="75.4" y2="61.8"/>
<line fill="none" stroke="#000000" stroke-width="1.74" stroke-linecap="round" stroke-linejoin="round" stroke-miterlimit="10" x1="75.4" y1="61.8" x2="69.46" y2="67.74"/>
<line fill="none" stroke="#000000" stroke-width="1.74" stroke-linecap="round" stroke-linejoin="round" stroke-miterlimit="10" x1="69.46" y1="67.74" x2="69.46" y2="70.14"/>
<line fill="none" stroke="#000000" stroke-width="1.74" stroke-linecap="round" stroke-linejoin="round" stroke-miterlimit="10" x1="75.101" y1="35.94" x2="75.101" y2="38.76"/>
<line fill="none" stroke="#000000" stroke-width="1.74" stroke-linecap="round" stroke-linejoin="round" stroke-miterlimit="10" x1="75.101" y1="72.96" x2="75.101" y2="70.14"/>
<line fill="none" stroke="#000000" stroke-width="1.74" stroke-linecap="round" stroke-linejoin="round" stroke-miterlimit="10" x1="75.101" y1="70.14" x2="80.74" y2="64.5"/>
<line fill="none" stroke="#000000" stroke-width="1.74" stroke-linecap="round" stroke-linejoin="round" stroke-miterlimit="10" x1="80.74" y1="64.5" x2="80.74" y2="46.26"/>
<line fill="none" stroke="#000000" stroke-width="1.74" stroke-linecap="round" stroke-linejoin="round" stroke-miterlimit="10" x1="80.74" y1="46.26" x2="75.101" y2="40.56"/>
<line fill="none" stroke="#000000" stroke-width="1.74" stroke-linecap="round" stroke-linejoin="round" stroke-miterlimit="10" x1="75.101" y1="40.56" x2="75.101" y2="38.76"/>
<line fill="none" stroke="#000000" stroke-width="1.74" stroke-linecap="round" stroke-linejoin="round" stroke-miterlimit="10" x1="41.141" y1="35.94" x2="41.141" y2="38.76"/>
<line fill="none" stroke="#000000" stroke-width="1.74" stroke-linecap="round" stroke-linejoin="round" stroke-miterlimit="10" x1="38.98" y1="72.96" x2="38.98" y2="70.14"/>
<line fill="none" stroke="#000000" stroke-width="1.74" stroke-linecap="round" stroke-linejoin="round" stroke-miterlimit="10" x1="38.98" y1="70.14" x2="33.22" y2="64.32"/>
<line fill="none" stroke="#000000" stroke-width="1.74" stroke-linecap="round" stroke-linejoin="round" stroke-miterlimit="10" x1="32.92" y1="54.18" x2="35.74" y2="51.36"/>
<line fill="none" stroke="#000000" stroke-width="1.74" stroke-linecap="round" stroke-linejoin="round" stroke-miterlimit="10" x1="35.74" y1="51.36" x2="39.7" y2="51.36"/>
<line fill="none" stroke="#000000" stroke-width="1.74" stroke-linecap="round" stroke-linejoin="round" stroke-miterlimit="10" x1="32.92" y1="64.08" x2="32.92" y2="54.18"/>
<line fill="none" stroke="#000000" stroke-width="1.74" stroke-linecap="round" stroke-linejoin="round" stroke-miterlimit="10" x1="34.48" y1="64.32" x2="33.22" y2="64.32"/>
<line fill="none" stroke="#000000" stroke-width="1.74" stroke-linecap="round" stroke-linejoin="round" stroke-miterlimit="10" x1="33.22" y1="64.32" x2="32.92" y2="64.08"/>
<line fill="none" stroke="#000000" stroke-width="1.74" stroke-linecap="round" stroke-linejoin="round" stroke-miterlimit="10" x1="39.7" y1="51.36" x2="39.7" y2="40.14"/>
<line fill="none" stroke="#000000" stroke-width="1.74" stroke-linecap="round" stroke-linejoin="round" stroke-miterlimit="10" x1="39.7" y1="40.14" x2="41.141" y2="38.76"/>
<line fill="none" stroke="#000000" stroke-width="1.74" stroke-linecap="round" stroke-linejoin="round" stroke-miterlimit="10" x1="48.94" y1="72.96" x2="48.94" y2="70.14"/>
<line fill="none" stroke="#000000" stroke-width="1.74" stroke-linecap="round" stroke-linejoin="round" stroke-miterlimit="10" x1="48.94" y1="70.14" x2="48.94" y2="67.62"/>
<line fill="none" stroke="#000000" stroke-width="1.74" stroke-linecap="round" stroke-linejoin="round" stroke-miterlimit="10" x1="42.4" y1="61.08" x2="42.4" y2="57.3"/>
<line fill="none" stroke="#000000" stroke-width="1.74" stroke-linecap="round" stroke-linejoin="round" stroke-miterlimit="10" x1="48.94" y1="67.62" x2="42.4" y2="61.08"/>
<ellipse cx="58.12" cy="54.42" rx="12.756" ry="12.699"/>
<line fill="none" stroke="#000000" stroke-width="0.12" stroke-linecap="round" stroke-linejoin="round" stroke-miterlimit="10" x1="86.44" y1="78.479" x2="86.44" y2="30.42"/>
<line fill="none" stroke="#000000" stroke-width="0.12" stroke-linecap="round" stroke-linejoin="round" stroke-miterlimit="10" x1="29.8" y1="30.42" x2="29.8" y2="78.479"/>
<line fill="none" stroke="#000000" stroke-width="0.12" stroke-linecap="round" stroke-linejoin="round" stroke-miterlimit="10" x1="86.44" y1="78.479" x2="79.36" y2="78.479"/>
<line fill="none" stroke="#000000" stroke-width="0.12" stroke-linecap="round" stroke-linejoin="round" stroke-miterlimit="10" x1="79.36" y1="78.479" x2="36.88" y2="78.479"/>
<line fill="none" stroke="#000000" stroke-width="0.12" stroke-linecap="round" stroke-linejoin="round" stroke-miterlimit="10" x1="36.88" y1="78.479" x2="29.8" y2="78.479"/>
<line fill="none" stroke="#000000" stroke-width="0.12" stroke-linecap="round" stroke-linejoin="round" stroke-miterlimit="10" x1="29.8" y1="30.42" x2="36.88" y2="30.42"/>
<line fill="none" stroke="#000000" stroke-width="0.12" stroke-linecap="round" stroke-linejoin="round" stroke-miterlimit="10" x1="36.88" y1="30.42" x2="79.36" y2="30.42"/>
<line fill="none" stroke="#000000" stroke-width="0.12" stroke-linecap="round" stroke-linejoin="round" stroke-miterlimit="10" x1="79.36" y1="30.42" x2="86.44" y2="30.42"/>
</svg>
